<svg xmlns="http://www.w3.org/2000/svg" width="261" height="261" viewBox="0 0 261 261">
  <g id="Group_3250" data-name="Group 3250" transform="translate(-986 2467)">
    <g id="Group_3249" data-name="Group 3249" transform="translate(3521.814 -2837.184)">
      <g id="Group_25" data-name="Group 25" transform="translate(-2514.814 474.184)">
        <path id="path172" d="M224.816,45.9a25.71,25.71,0,1,1-25.71,25.71A25.711,25.711,0,0,1,224.816,45.9Zm0,12.12a13.591,13.591,0,1,1-13.591,13.591A13.591,13.591,0,0,1,224.816,58.022Z" transform="translate(-32.254 -45.892)" fill="#fff" fill-rule="evenodd"/>
        <path id="path176" d="M195.19,71.625c0,19.421-13.215,25.838-27.32,25.777l-15.153-.066V46.957c18.3,0,42.473-3.539,42.473,24.668Zm-12.056.19c0,15.409-10.773,14.925-18.535,14.925V57.5C172.585,57.5,183.134,55.441,183.134,71.814Z" transform="translate(-31.547 -45.914)" fill="#fff" fill-rule="evenodd"/>
        <path id="path178" d="M131.978,47.284V96.238h11.407V47.284Z" transform="translate(-31.271 -45.921)" fill="#fff" fill-rule="evenodd"/>
        <path id="path180" d="M82.124,47.284H93.53l-.01,25.845c0,7.73,2.434,13.236,9.04,13.236,6.016,0,8.569-5.2,8.567-12.5l-.011-26.576h11.407l.121,28.966c.05,12.018-5.631,21.975-20.559,21.975-15.163,0-20.03-10.261-20.01-22.384Z" transform="translate(-30.608 -45.921)" fill="#fff" fill-rule="evenodd"/>
        <path id="path182" d="M55.625,45.9a25.637,25.637,0,0,1,19.59,9.061l-6.873,7.956c-2.262-2.142-9.061-5.434-12.717-5.434a14.128,14.128,0,0,0,0,28.256c1.106,0,8.477-.145,8.5-2.945V77.181H52.6V66.991H75.253V88.218A25.71,25.71,0,1,1,55.625,45.9Z" transform="translate(-29.915 -45.902)" fill="#fff" fill-rule="evenodd"/>
        <path id="path172-2" data-name="path172" d="M204.838,45.9a5.733,5.733,0,1,1-5.732,5.733A5.733,5.733,0,0,1,204.838,45.9Z" transform="translate(-11.803 -26.387)" fill="#4e8bdc" fill-rule="evenodd"/>
      </g>
    </g>
  </g>
</svg>
