<svg id="account" xmlns="http://www.w3.org/2000/svg" width="23" height="23" viewBox="0 0 23 23">
  <path id="Path_3395" data-name="Path 3395" d="M23,11.5A11.5,11.5,0,1,0,11.5,23,11.494,11.494,0,0,0,23,11.5ZM11.5,1.348a10.154,10.154,0,0,1,8.414,15.836,11.5,11.5,0,0,0-16.827,0A10.154,10.154,0,0,1,11.5,1.348ZM3.927,18.261a10.15,10.15,0,0,1,15.146,0A10.143,10.143,0,0,1,3.927,18.261Zm0,0" fill="#fff"/>
  <path id="Path_3396" data-name="Path 3396" d="M170.043,70.434a4.048,4.048,0,0,0,4.043-4.043V65.043a4.043,4.043,0,1,0-8.086,0v1.348A4.048,4.048,0,0,0,170.043,70.434Zm-2.7-5.391a2.7,2.7,0,1,1,5.391,0v1.348a2.7,2.7,0,1,1-5.391,0Zm0,0" transform="translate(-158.543 -58.26)" fill="#fff"/>
</svg>
