<svg xmlns="http://www.w3.org/2000/svg" width="32.345" height="30.201" viewBox="0 0 32.345 30.201">
  <g id="coupon" transform="translate(0 -16.97)">
    <path id="Path_3578" data-name="Path 3578" d="M184.795,98.157a.947.947,0,1,0,.654-1.092A.947.947,0,0,0,184.795,98.157Z" transform="translate(-173.102 -74.998)"/>
    <path id="Path_3579" data-name="Path 3579" d="M32.107,36.4c-5.156-15.009-4.8-13.981-4.824-14.032a4.84,4.84,0,0,0-2.859-2.65c-.183-.063-10.562-2.491-10.862-2.595a3.189,3.189,0,0,0-3.1.685L1.573,25.988A4.892,4.892,0,0,0,0,29.58V44.073a3.093,3.093,0,0,0,3.081,3.1H22.11a3.093,3.093,0,0,0,3.081-3.1v-1.4l5.3-2.27A3.078,3.078,0,0,0,32.107,36.4Zm-10,8.88H3.081a1.2,1.2,0,0,1-1.186-1.2V29.58a2.992,2.992,0,0,1,.961-2.2c7.62-7.012,2.91-2.638,8.925-8.185a1.2,1.2,0,0,1,1.176-.276c.384.115-.294-.437,9.376,8.461a2.992,2.992,0,0,1,.961,2.2V44.073a1.2,1.2,0,0,1-1.186,1.2Zm7.636-6.614L25.19,40.611V29.58a4.891,4.891,0,0,0-1.573-3.592l-6.624-6.095,6.855,1.627a2.942,2.942,0,0,1,1.682,1.564c5.146,14.981,4.8,13.975,4.822,14.027A1.18,1.18,0,0,1,29.745,38.661Z" transform="translate(0)"/>
    <path id="Path_3580" data-name="Path 3580" d="M154.045,201.2a.948.948,0,0,0-1.241.507L148.191,212.7a.948.948,0,1,0,1.748.733l4.613-10.995A.948.948,0,0,0,154.045,201.2Z" transform="translate(-138.759 -172.521)"/>
    <path id="Path_3581" data-name="Path 3581" d="M83.1,196.334a3,3,0,1,0-2.986,3.317A3.168,3.168,0,0,0,83.1,196.334Zm-2.986,1.422a1.472,1.472,0,1,1,1.091-1.422A1.307,1.307,0,0,1,80.114,197.756Z" transform="translate(-72.255 -164.925)"/>
    <path id="Path_3582" data-name="Path 3582" d="M231.471,312.011a3.335,3.335,0,1,0,2.986,3.317A3.168,3.168,0,0,0,231.471,312.011Zm0,4.738a1.472,1.472,0,1,1,1.091-1.422A1.307,1.307,0,0,1,231.471,316.75Z" transform="translate(-214.05 -276.402)"/>
  </g>
</svg>
