<?xml version="1.0" ?>
<svg width="49" height="47" version="1.1" viewBox="0 0 49 47"
    xml:space="preserve" xmlns="http://www.w3.org/2000/svg" xmlns:xlink="http://www.w3.org/1999/xlink">
    <g>
        <path
            fill="#000000"
            id="svg_2"
            d="m43.811859,8.248591l-4.153,-4.153c-1.23,-1.231 -2.867,-1.91 -4.609,-1.91s-3.379,0.678 -4.609,1.909l-23.089,23.087c-0.095,0.095 -0.173,0.202 -0.241,0.313c-0.02,0.032 -0.035,0.064 -0.053,0.098c-0.048,0.092 -0.088,0.187 -0.118,0.285c-0.007,0.021 -0.021,0.041 -0.026,0.063l-4.008,14.826c-0.159,0.588 0.008,1.216 0.438,1.646c0.323,0.322 0.757,0.498 1.202,0.498c0.148,0 0.297,-0.02 0.443,-0.059l14.189,-3.836c0.113,0.023 0.229,0.036 0.344,0.036c0.436,0 0.87,-0.166 1.202,-0.498l23.088,-23.086c1.231,-1.231 1.91,-2.869 1.909,-4.61c0.001,-1.741 -0.677,-3.378 -1.909,-4.609zm-24.289,28.699l-8.564,-8.564l18.229,-18.229l8.565,8.563l-18.23,18.23zm-12.563,3.85l2.47,-9.135l6.665,6.665l-9.135,2.47zm34.448,-25.734l-1.25,1.25l-8.565,-8.563l1.252,-1.251c1.178,-1.178 3.232,-1.178 4.41,0l4.153,4.154c0.589,0.589 0.914,1.373 0.914,2.206s-0.324,1.615 -0.914,2.204z"
        />
        <rect
            fill="#000000"
            id="svg_3"
            y="12.628417"
            x="39.926336"
            width="15.087"
            height="3.4"
            transform="matrix(0.7071,-0.7071,0.7071,0.7071,-18.8662,46.5096) "
        />
    </g>
</svg>