<svg xmlns="http://www.w3.org/2000/svg" width="22.7" height="22.7" viewBox="0 0 22.7 22.7">
  <path id="facebook" d="M19.422,0H2.578A2.581,2.581,0,0,0,0,2.578V19.422A2.581,2.581,0,0,0,2.578,22H19.422A2.581,2.581,0,0,0,22,19.422V2.578A2.581,2.581,0,0,0,19.422,0Zm.859,19.422a.86.86,0,0,1-.859.859h-5.07V14.008H17.1l.321-2.664H14.352V8.465a1.261,1.261,0,0,1,1.289-1.289h1.934V4.684a19.112,19.112,0,0,0-1.934-.172,3.979,3.979,0,0,0-2.756,1.16,3.913,3.913,0,0,0-1.2,2.8v2.871H8.895v2.664h2.793v6.273H2.578a.86.86,0,0,1-.859-.859V2.578a.86.86,0,0,1,.859-.859H19.422a.86.86,0,0,1,.859.859Zm0,0" transform="translate(0.35 0.35)" stroke="#fff" stroke-width="0.7"/>
</svg>
