<svg xmlns="http://www.w3.org/2000/svg" width="45.571" height="61.728" viewBox="0 0 45.571 61.728">
  <g id="finger" transform="translate(-66.82 0)">
    <path id="Path_3585" data-name="Path 3585" d="M205.491,372.884a3.093,3.093,0,0,1-.645-.852l-1.5-2.919a.907.907,0,0,0-1.613.83l1.5,2.919a4.9,4.9,0,0,0,1.023,1.35l5.871,5.461v5.2a.907.907,0,1,0,1.813,0v-5.6a.906.906,0,0,0-.289-.664Z" transform="translate(-118.513 -324.057)" fill="#e40428"/>
    <path id="Path_3586" data-name="Path 3586" d="M157.323,214.017,153.3,206.19l-.008-.015a1.492,1.492,0,0,1,2.331-1.8l5.319,4.957a.907.907,0,0,0,1.525-.663V197.028a.907.907,0,0,0-1.813,0v9.559l-3.795-3.536a3.305,3.305,0,0,0-5.168,3.976l4.023,7.82a.907.907,0,1,0,1.613-.83Z" transform="translate(-74.267 -172.411)" fill="#e40428"/>
    <path id="Path_3587" data-name="Path 3587" d="M250.714,103.6a3.925,3.925,0,0,0-3.024,1.423,3.926,3.926,0,0,0-6.049,0,3.922,3.922,0,0,0-5.142-.8V97.01a3.931,3.931,0,0,0-7.862,0v5.569a.907.907,0,1,0,1.813,0V97.01a2.118,2.118,0,1,1,4.235,0v16.1a.907.907,0,0,0,1.813,0v-5.58a2.118,2.118,0,1,1,4.235,0v5.574a.907.907,0,1,0,1.813,0v-5.574a2.118,2.118,0,1,1,4.235,0v5.574a.907.907,0,1,0,1.813,0v-5.574a2.118,2.118,0,0,1,4.235,0v24.3a2.62,2.62,0,0,1-.355,1.316l-1.456,2.5a.907.907,0,0,0-.123.456v6.42a.907.907,0,1,0,1.813,0v-6.175l1.333-2.291a4.434,4.434,0,0,0,.6-2.228v-24.3a3.935,3.935,0,0,0-3.931-3.931Z" transform="translate(-142.254 -81.826)" fill="#e40428"/>
    <path id="Path_3588" data-name="Path 3588" d="M310.411,72.08a7.441,7.441,0,0,1-1.552,4.571.907.907,0,1,0,1.438,1.1,9.327,9.327,0,0,0,.985-9.764.907.907,0,0,0-1.629.8A7.44,7.44,0,0,1,310.411,72.08Z" transform="translate(-212.613 -59.325)" fill="#e40428"/>
    <path id="Path_3589" data-name="Path 3589" d="M185.742,43.439a.907.907,0,0,0,1.425-1.121,7.436,7.436,0,0,1-1.606-4.64,7.523,7.523,0,0,1,7.515-7.515,7.443,7.443,0,0,1,4.568,1.55.907.907,0,1,0,1.1-1.439,9.24,9.24,0,0,0-5.672-1.925,9.339,9.339,0,0,0-9.328,9.328A9.233,9.233,0,0,0,185.742,43.439Z" transform="translate(-102.792 -24.923)" fill="#e40428"/>
    <path id="Path_3590" data-name="Path 3590" d="M139.671,25.344a.907.907,0,1,0,1.052-1.477,13.631,13.631,0,0,1,0-22.22A.907.907,0,0,0,139.671.17a15.444,15.444,0,0,0,0,25.174Z" transform="translate(-58.334 -0.002)" fill="#e40428"/>
    <path id="Path_3591" data-name="Path 3591" d="M323.443,1.645A13.645,13.645,0,0,1,328.2,17.837a.907.907,0,1,0,1.682.677A15.458,15.458,0,0,0,324.495.168a.907.907,0,1,0-1.052,1.477Z" transform="translate(-225.264 0)" fill="#e40428"/>
    <path id="Path_3592" data-name="Path 3592" d="M72.659,31.991a.907.907,0,1,0,1.327-1.236l-1.972-2.118a.907.907,0,1,0-1.327,1.236Z" transform="translate(-3.186 -24.922)" fill="#e40428"/>
    <path id="Path_3593" data-name="Path 3593" d="M72.659,130.732l-1.972,2.118a.907.907,0,1,0,1.327,1.236l1.972-2.118a.907.907,0,1,0-1.327-1.236Z" transform="translate(-3.186 -114.674)" fill="#e40428"/>
    <path id="Path_3594" data-name="Path 3594" d="M70.137,85.135h-2.41a.907.907,0,1,0,0,1.813h2.41a.907.907,0,1,0,0-1.813Z" transform="translate(0 -74.843)" fill="#e40428"/>
  </g>
</svg>
