<svg xmlns="http://www.w3.org/2000/svg" width="26.87" height="16.203" viewBox="0 0 26.87 16.203">
  <g id="Page-1" transform="translate(-5.9 -14.897)">
    <g id="_008---Coffee-and-Croissant" data-name="008---Coffee-and-Croissant" transform="translate(6 15)">
      <path id="Shape" d="M25.623,27.445h-3a6.178,6.178,0,0,0,2.743-2.317.844.844,0,0,0,.048-.777c-.029-.067-.066-.147-.107-.234a8.116,8.116,0,0,0,1.162-2.5,9.238,9.238,0,0,0,.139-2.95,1.085,1.085,0,0,0-.724-.907c-.451-2.163-1.057-2.508-1.263-2.622a.986.986,0,0,0-.855-.06c-1.1.419-1.1,1.4-1.108,2.27,0,.208-.007.42-.02.631a1.262,1.262,0,0,0-.91.83,3.051,3.051,0,0,1-.366.732,5.394,5.394,0,0,0-.566-.26.812.812,0,0,0-.57,0l-2.282.872a.827.827,0,0,0-.423.367,6.066,6.066,0,0,0-.285.594,3.058,3.058,0,0,1-.349-.131v-5.09A.889.889,0,0,0,16,15H5.333a.889.889,0,0,0-.889.889v.605a5,5,0,0,0-1.258-.161C0,16.333,0,19.836,0,20.987c0,2.573,1.251,4.236,3.187,4.236A5.623,5.623,0,0,0,4.7,25.005a4.856,4.856,0,0,0,1.814,2.439H2.822a.965.965,0,0,0-1.044.889v.889A2.03,2.03,0,0,0,4.022,31h20.4a2.03,2.03,0,0,0,2.244-1.778v-.889a.965.965,0,0,0-1.044-.889ZM24.084,15.9a.1.1,0,0,1,.1.005c.076.042.441.323.776,1.794-.374.016-.858.048-1.422.121.006-.166.007-.328.008-.478C23.553,16.422,23.6,16.086,24.084,15.9Zm-1.506,3.172a.379.379,0,0,1,.3-.251c.082-.017.164-.029.254-.044a14.751,14.751,0,0,1,2.348-.206h.029a.208.208,0,0,1,.22.178,8.342,8.342,0,0,1-.118,2.652,6.692,6.692,0,0,1-.772,1.8A10.178,10.178,0,0,0,22.122,20,3.936,3.936,0,0,0,22.578,19.073Zm-4.289,1.894,2.228-.851c2.379.936,3.822,3.988,4.089,4.56a5.754,5.754,0,0,1-3.071,2.273,7.408,7.408,0,0,1-2.18.5h-.586a3.517,3.517,0,0,1-.913-.164c-.025-.109-.06-.258-.094-.438-.212-1.1-.581-3.868.525-5.876Zm-2.707,5.792a8.431,8.431,0,0,0,1.362.521c.013.062.026.115.037.165H14.8a4.906,4.906,0,0,0,.782-.686Zm1.188-.47a5.934,5.934,0,0,1-1.668-.864,7.658,7.658,0,0,1-1.668-1.96.267.267,0,0,1,.08-.324l.016-.016a15.79,15.79,0,0,1,1.952-1.436c.071-.044.141-.092.227-.142a.325.325,0,0,1,.343-.008,3.556,3.556,0,0,0,.9.407A11.026,11.026,0,0,0,16.77,26.289Zm-3.847-6.077a.148.148,0,0,1,.1-.1c.471-.178.687.035,1.236.738.094.12.2.249.3.379-.484.325-.883.626-1.184.869a3.18,3.18,0,0,1-.452-1.887ZM4.445,22.277a3.181,3.181,0,0,1-1.258.279c-.338,0-.52-.808-.52-1.569,0-1.987.3-1.987.52-1.987a1.9,1.9,0,0,1,1.258.411ZM.889,20.988c0-1.754.261-3.766,2.3-3.766a4.005,4.005,0,0,1,1.258.2v.955a2.969,2.969,0,0,0-1.258-.262c-1.3,0-1.409,1.36-1.409,2.876,0,1.539.527,2.458,1.409,2.458a3.9,3.9,0,0,0,1.258-.222v.222a4.81,4.81,0,0,0,.056.694,4.769,4.769,0,0,1-1.314.2c-1.439,0-2.3-1.251-2.3-3.347Zm4.548,3.356a3.911,3.911,0,0,1-.1-.9V15.889H16V20.62a1.209,1.209,0,0,0-.674.133c-.128-.147-.252-.3-.37-.449-.5-.645-1.129-1.45-2.252-1.022a1.033,1.033,0,0,0-.609.607c-.232.6-.03,1.537.6,2.858a1.12,1.12,0,0,0-.02,1.185,8.552,8.552,0,0,0,1.88,2.2c.078.06.158.115.239.17A3.967,3.967,0,0,1,12,27.445H9.333a3.978,3.978,0,0,1-3.9-3.1Zm20.341,4.878c0,.482-.622.889-1.356.889H4.022c-.733,0-1.356-.407-1.356-.889v-.848a.284.284,0,0,1,.156-.04h22.8a.284.284,0,0,1,.156.04Z" transform="translate(0 -15)" fill="#fff" stroke="#fff" stroke-width="0.2"/>
    </g>
  </g>
</svg>
