<svg xmlns="http://www.w3.org/2000/svg" width="14.464" height="18.52" viewBox="0 0 14.464 18.52">
  <g id="phone_3_" data-name="phone (3)" transform="translate(-57.597 0.25)">
    <path id="Path_3424" data-name="Path 3424" d="M70.463,8.526l-2.55-2.55V1.584A1.586,1.586,0,0,0,66.329,0h-6.9a1.586,1.586,0,0,0-1.584,1.584V16.436a1.586,1.586,0,0,0,1.584,1.584H70.2a.528.528,0,0,0,.518-.424l.984-4.9A4.6,4.6,0,0,0,70.463,8.526ZM59.431,1.056h6.9a.529.529,0,0,1,.528.528v6.81a1.654,1.654,0,0,0-2.335,2.343l2.022,2.1a4.484,4.484,0,0,0-1.414,1.837H58.9V1.584A.529.529,0,0,1,59.431,1.056ZM58.9,16.436v-.7h5.886a7.548,7.548,0,0,0-.169,1.232H59.431a.529.529,0,0,1-.528-.528Zm11.764-3.945-.9,4.473h-4.09a4.844,4.844,0,0,1,.945-2.739,2.679,2.679,0,0,1,.95-.779.523.523,0,0,0,.193-.859L65.272,9.994a.6.6,0,0,1,.845-.848c1.116,1.142.573.594,2.526,2.547a.528.528,0,1,0,.747-.747L67.913,9.47v-2l1.8,1.8A3.546,3.546,0,0,1,70.667,12.491Z" fill="#005d6b" stroke="#fff" stroke-width="0.5"/>
  </g>
</svg>
