<svg id="Group_3234" data-name="Group 3234" xmlns="http://www.w3.org/2000/svg" width="20" height="20" viewBox="0 0 20 20">
  <path id="Path_3599" data-name="Path 3599" d="M10,0A9.953,9.953,0,0,0,0,10,9.939,9.939,0,0,0,10,20c7.626,0,10-6.681,10-10A9.919,9.919,0,0,0,10,0ZM7.681.941A8.929,8.929,0,0,0,5.213,5.13a9.29,9.29,0,0,1-1.98-1.579A9.369,9.369,0,0,1,7.681.941ZM2.8,4.031a9.8,9.8,0,0,0,2.232,1.74,16.908,16.908,0,0,0-.512,3.906H.654A9.314,9.314,0,0,1,2.8,4.031Zm0,11.937a9.29,9.29,0,0,1-2.15-5.646h3.87a16.879,16.879,0,0,0,.512,3.906A10.094,10.094,0,0,0,2.8,15.969Zm.429.484a9.29,9.29,0,0,1,1.98-1.579,8.949,8.949,0,0,0,2.469,4.189A9.433,9.433,0,0,1,3.232,16.453Zm6.445,2.878c-1.677-.213-3.122-2.087-3.9-4.772a9.41,9.41,0,0,1,3.9-1v5.776Zm0-6.417A10.016,10.016,0,0,0,5.61,13.925a16.888,16.888,0,0,1-.445-3.6H9.677Zm0-3.236H5.165a16.888,16.888,0,0,1,.445-3.6A10.048,10.048,0,0,0,9.677,7.087Zm0-3.232a9.335,9.335,0,0,1-3.9-1C6.555,2.752,8,.882,9.677.669ZM17.2,4.031a9.314,9.314,0,0,1,2.15,5.646H15.48a16.879,16.879,0,0,0-.512-3.906A9.983,9.983,0,0,0,17.2,4.031Zm-.429-.484a9.29,9.29,0,0,1-1.98,1.579A8.969,8.969,0,0,0,12.319.937,9.433,9.433,0,0,1,16.768,3.547ZM10.323.669c1.677.213,3.122,2.087,3.9,4.772a9.4,9.4,0,0,1-3.9,1Zm0,6.417A10.016,10.016,0,0,0,14.39,6.075a16.888,16.888,0,0,1,.445,3.6H10.323Zm0,3.236h4.512a16.888,16.888,0,0,1-.445,3.6,9.891,9.891,0,0,0-4.067-1.012Zm0,9.008V13.555a9.335,9.335,0,0,1,3.9,1C13.445,17.248,12,19.118,10.323,19.331Zm2-.272a8.929,8.929,0,0,0,2.469-4.189,9.29,9.29,0,0,1,1.98,1.579A9.369,9.369,0,0,1,12.319,19.059ZM17.2,15.969a9.983,9.983,0,0,0-2.228-1.74,16.908,16.908,0,0,0,.512-3.906h3.866A9.314,9.314,0,0,1,17.2,15.969Z"/>
</svg>
