<svg xmlns="http://www.w3.org/2000/svg" width="26.159" height="26.159" viewBox="0 0 26.159 26.159">
  <path id="global" d="M13.079,0A13.079,13.079,0,1,0,26.159,13.079,13.079,13.079,0,0,0,13.079,0ZM24.391,17.661l-3.72.642a19.518,19.518,0,0,0,.684-4.788h3.92A12.127,12.127,0,0,1,24.391,17.661ZM.883,13.515H4.8A19.518,19.518,0,0,0,5.487,18.3l-3.72-.642A12.126,12.126,0,0,1,.883,13.515ZM1.768,8.5l3.72-.642A19.518,19.518,0,0,0,4.8,12.643H.883A12.126,12.126,0,0,1,1.768,8.5ZM13.515,7a29.993,29.993,0,0,1,4.674.427l1.539.265a18.714,18.714,0,0,1,.756,4.951H13.515Zm4.822-.433a30.9,30.9,0,0,0-4.822-.439V.9c2.5.24,4.671,2.529,5.9,5.859Zm-5.694-.439a30.9,30.9,0,0,0-4.822.439l-1.079.187c1.23-3.331,3.4-5.621,5.9-5.86ZM7.97,7.427A29.985,29.985,0,0,1,12.643,7v5.643H5.674a18.714,18.714,0,0,1,.756-4.951Zm-2.3,6.088h6.969v5.643a29.992,29.992,0,0,1-4.674-.427l-1.539-.265A18.714,18.714,0,0,1,5.674,13.515Zm2.147,6.076a31.008,31.008,0,0,0,4.822.442v5.232c-2.5-.24-4.671-2.529-5.9-5.859Zm5.694.442a31,31,0,0,0,4.822-.442l1.079-.187c-1.23,3.331-3.4,5.621-5.9,5.86Zm4.673-1.3a29.984,29.984,0,0,1-4.673.427V13.515h6.969a18.714,18.714,0,0,1-.756,4.951Zm3.167-6.088a19.518,19.518,0,0,0-.684-4.788l3.72.642a12.127,12.127,0,0,1,.885,4.146ZM23.95,7.536l-3.566-.615a12.022,12.022,0,0,0-3.469-5.428A12.265,12.265,0,0,1,23.95,7.536ZM9.243,1.493A12.022,12.022,0,0,0,5.774,6.921l-3.566.615A12.265,12.265,0,0,1,9.243,1.493ZM2.209,18.622l3.566.615a12.022,12.022,0,0,0,3.469,5.428A12.265,12.265,0,0,1,2.209,18.622Zm14.707,6.043a12.022,12.022,0,0,0,3.469-5.428l3.566-.615A12.265,12.265,0,0,1,16.916,24.666Zm0,0"/>
</svg>
