<?xml version="1.0" encoding="UTF-8" standalone="no"?>
<svg
   xmlns:dc="http://purl.org/dc/elements/1.1/"
   xmlns:cc="http://creativecommons.org/ns#"
   xmlns:rdf="http://www.w3.org/1999/02/22-rdf-syntax-ns#"
   xmlns:svg="http://www.w3.org/2000/svg"
   xmlns="http://www.w3.org/2000/svg"
   xmlns:sodipodi="http://sodipodi.sourceforge.net/DTD/sodipodi-0.dtd"
   xmlns:inkscape="http://www.inkscape.org/namespaces/inkscape"
   version="1.1"
   id="svg2"
   xml:space="preserve"
   width="508.29333"
   height="183.81332"
   viewBox="0 0 508.29333 183.81332"
   sodipodi:docname="LOGO_GUIDO_APP_31_RGB_ai.eps"><metadata
     id="metadata8"><rdf:RDF><cc:Work
         rdf:about=""><dc:format>image/svg+xml</dc:format><dc:type
           rdf:resource="http://purl.org/dc/dcmitype/StillImage" /></cc:Work></rdf:RDF></metadata><defs
     id="defs6" /><sodipodi:namedview
     pagecolor="#ffffff"
     bordercolor="#666666"
     borderopacity="1"
     objecttolerance="10"
     gridtolerance="10"
     guidetolerance="10"
     inkscape:pageopacity="0"
     inkscape:pageshadow="2"
     inkscape:window-width="640"
     inkscape:window-height="480"
     id="namedview4" /><g
     id="g10"
     inkscape:groupmode="layer"
     inkscape:label="ink_ext_XXXXXX"
     transform="matrix(1.3333333,0,0,-1.3333333,0,183.81333)"><g
       id="g12"
       transform="scale(0.1)"><path
         d="M 2.83594,1375.8 V 205.781 L 3604.27,204.582 V 1375.8 H 2.83594"
         style="fill:#ffffff;fill-opacity:1;fill-rule:nonzero;stroke:none"
         id="path14" /><path
         d="M 0,1378.63 V 202.949 H 204.602 V 0 H 3812.16 v 1175.69 h -204.6 v 202.94 z M 113.641,1264.99 H 3493.93 V 316.57 H 113.641 Z M 318.227,202.949 H 3607.56 v 859.121 h 90.97 V 113.621 H 318.227 v 89.328"
         style="fill:#3b6dbc;fill-opacity:1;fill-rule:nonzero;stroke:none"
         id="path16" /><path
         d="m 2143.26,585.09 v 418.51 h 89.08 c 119.2,0 200.27,-95.123 200.27,-209.264 0,-114.141 -81.07,-209.246 -200.27,-209.246 z m 89.08,-146.188 c 200.27,0 361.46,159.203 361.46,355.434 0,196.246 -161.19,355.434 -361.46,355.434 h -249.3 V 438.902 Z M 1848.9,1149.77 H 1687.71 V 438.902 h 161.19 z m -288.34,0 H 1400.34 V 725.25 c 0,-86.133 -53.07,-140.16 -131.19,-140.16 -78.06,0 -131.13,54.027 -131.13,140.16 v 424.52 H 977.805 V 727.242 c 0,-178.226 121.125,-296.355 291.345,-296.355 170.22,0 291.41,118.129 291.41,296.355 z M 877.695,547.023 V 869.457 H 586.227 L 586.172,719.23 H 722.477 V 620.086 C 687.469,595.098 643.383,585.09 585.313,585.09 c -115.102,0 -202.262,95.105 -202.262,209.246 0,114.141 87.16,209.264 202.262,209.264 76.085,0 123.183,-25.057 166.242,-79.096 l 121.136,99.086 c -69.089,85.12 -165.222,134.2 -287.378,134.2 -200.215,0 -363.446,-163.235 -363.446,-363.454 0,-200.27 163.231,-363.449 363.446,-363.449 120.175,0 222.261,36.023 292.382,116.136"
         style="fill:#3b6dbc;fill-opacity:1;fill-rule:nonzero;stroke:none"
         id="path18" /><path
         d="m 3025.35,585.07 c -115.17,0 -202.26,95.11 -202.26,209.25 0,114.141 87.09,209.26 202.26,209.26 115.17,0 202.27,-95.119 202.27,-209.26 0,-114.14 -87.1,-209.25 -202.27,-209.25 m 0,-154.199 c 200.27,0 363.45,163.231 363.45,363.449 0,200.282 -163.18,363.45 -363.45,363.45 -200.27,0 -363.45,-163.168 -363.45,-363.45 0,-200.218 163.18,-363.449 363.45,-363.449"
         style="fill:#3b6dbc;fill-opacity:1;fill-rule:nonzero;stroke:none"
         id="path20" /><path
         d="m 3025.35,714.637 c 44.04,0 79.72,35.679 79.72,79.715 0,43.968 -35.68,79.648 -79.72,79.648 -44.03,0 -79.71,-35.68 -79.71,-79.648 0,-44.036 35.68,-79.715 79.71,-79.715"
         style="fill:#e81541;fill-opacity:1;fill-rule:nonzero;stroke:none"
         id="path22" /></g></g></svg>
