<svg xmlns="http://www.w3.org/2000/svg" width="21.217" height="28.286" viewBox="0 0 21.217 28.286">
  <g id="pin" transform="translate(-63.974 0)">
    <g id="Group_3211" data-name="Group 3211" transform="translate(63.974 0)">
      <g id="Group_3210" data-name="Group 3210" transform="translate(0 0)">
        <path id="Path_3583" data-name="Path 3583" d="M85.124,27.289,81.4,19.4a.7.7,0,0,0-.358-.344l-1.855-.826L82.4,12.844l.022-.039A8.8,8.8,0,0,0,80.761,2.534,8.8,8.8,0,0,0,66.747,12.8l.022.039,3.214,5.387-1.866.83a.7.7,0,0,0-.347.339l-3.729,7.888a.7.7,0,0,0,.915.936l4.671-2.08,4.671,2.08a.7.7,0,0,0,.568,0l4.671-2.08,4.671,2.08a.7.7,0,0,0,.915-.936ZM67.979,12.149a7.32,7.32,0,0,1-.8-3.395,7.44,7.44,0,0,1,7.3-7.357,7.406,7.406,0,0,1,6.708,10.752l-6,10.063a.7.7,0,0,1-1.2,0Zm11.842,12.6a.7.7,0,0,0-.568,0l-4.671,2.08-4.671-2.08a.7.7,0,0,0-.568,0l-3.236,1.441,2.814-5.953,1.782-.793,2.081,3.488a2.094,2.094,0,0,0,3.6,0l2.081-3.488,1.782.793,2.814,5.952Z" transform="translate(-63.974 0)"/>
      </g>
    </g>
    <g id="Group_3213" data-name="Group 3213" transform="translate(71.397 5.613)">
      <g id="Group_3212" data-name="Group 3212" transform="translate(0)">
        <path id="Path_3584" data-name="Path 3584" d="M201.53,101.607a3.185,3.185,0,1,0,3.185,3.185A3.189,3.189,0,0,0,201.53,101.607Zm0,4.975a1.79,1.79,0,1,1,1.79-1.789A1.791,1.791,0,0,1,201.53,106.582Z" transform="translate(-198.345 -101.607)"/>
      </g>
    </g>
  </g>
</svg>
