<svg xmlns="http://www.w3.org/2000/svg" width="25.445" height="25.358" viewBox="0 0 25.445 25.358">
  <path id="phone" d="M15.19,16.026a18.24,18.24,0,0,1-3.846-2.976A18.53,18.53,0,0,1,8.35,9.185l2.585-2.618L4.407,0,1.191,3.195A4.045,4.045,0,0,0,.4,7.818a35.5,35.5,0,0,0,6.818,9.475A35.5,35.5,0,0,0,16.7,24.11a4,4,0,0,0,1.753.4,4.059,4.059,0,0,0,2.87-1.191l3.2-3.212-6.66-6.671Zm4.775,5.944a2.13,2.13,0,0,1-2.433.418,33.562,33.562,0,0,1-8.957-6.449A33.562,33.562,0,0,1,2.125,6.982,2.129,2.129,0,0,1,2.542,4.55L4.4,2.706,8.24,6.571,6.038,8.8l.266.6a18.531,18.531,0,0,0,3.687,5,18.206,18.206,0,0,0,4.985,3.666l.589.259,2.273-2.2,3.979,3.986ZM17.7,9.016l-4.5-4.5,4.5-4.5L19.052,1.36,16.906,3.507h4.76a2.877,2.877,0,0,1,2.877,2.871l.006,5.023-1.914,0-.006-5.024a.961.961,0,0,0-.963-.958H16.81l2.242,2.242Zm0,0" transform="translate(0.43 0.495)" stroke="#fff" stroke-width="0.7"/>
</svg>
