<svg xmlns="http://www.w3.org/2000/svg" width="70.321" height="115.546" viewBox="0 0 70.321 115.546">
  <path id="success" d="M61.892,36.181a8.889,8.889,0,0,0-6.045,2.365,8.906,8.906,0,0,0-9.489-5.918l4.389-21.948a8.929,8.929,0,1,0-17.51-3.5L26.493,40.9a9.068,9.068,0,0,0-1.5.315L18.185,7.177a8.929,8.929,0,1,0-17.51,3.5L8.661,50.61A16.136,16.136,0,0,0,2.311,63.454v6.681A26.843,26.843,0,0,0,4.732,81.314L9.721,92.29a18.089,18.089,0,0,1,1.632,7.534v8.6a7.127,7.127,0,0,0,7.119,7.119H60.084a7.128,7.128,0,0,0,7.12-7.119V72.245a1.693,1.693,0,1,0-3.385,0v29.061H60.084a1.693,1.693,0,1,0,0,3.385h3.735v3.734a3.74,3.74,0,0,1-3.735,3.735H18.472a3.739,3.739,0,0,1-3.734-3.735v-3.734h38.11a1.693,1.693,0,0,0,0-3.385H14.738V99.823A21.445,21.445,0,0,0,12.8,90.889L7.814,79.914A23.474,23.474,0,0,1,5.7,70.136V63.454a12.761,12.761,0,0,1,5.651-10.607L24.4,45.206c.029-.017.057-.034.086-.053a5.541,5.541,0,0,1,7.971,2.014,5.762,5.762,0,0,1-2.047,7.361L17.8,61.871a1.693,1.693,0,0,0,.647,3.143,14.584,14.584,0,0,1,12.44,17.709,1.693,1.693,0,0,0,3.3.754A17.975,17.975,0,0,0,23.1,62.705l9.06-5.279c.029-.017.058-.035.086-.054a9.176,9.176,0,0,0,3.194-11.8A8.971,8.971,0,0,0,29.9,41.151L36.557,7.842a5.544,5.544,0,1,1,10.872,2.175L42.641,33.955a8.93,8.93,0,0,0-4.149,7.536V54.155a8.923,8.923,0,0,0,14.974,6.563,8.928,8.928,0,0,0,17.356-2.945V45.109A8.939,8.939,0,0,0,61.892,36.181ZM8.342,3.493a5.553,5.553,0,0,1,6.524,4.349l6.986,34.933L11.732,48.7,3.994,10.017A5.551,5.551,0,0,1,8.342,3.493ZM47.42,59.7a5.55,5.55,0,0,1-5.543-5.543V41.492a5.544,5.544,0,0,1,11.087,0V54.155A5.55,5.55,0,0,1,47.42,59.7Zm20.016-1.925a5.544,5.544,0,1,1-11.087,0V45.109a5.544,5.544,0,0,1,11.087,0Zm0,0" transform="translate(-0.501 0)" fill="#005d6b"/>
</svg>
