<svg xmlns="http://www.w3.org/2000/svg" width="46.74" height="36.735" viewBox="0 0 46.74 36.735">
  <g id="wallet" transform="translate(0.5 -55.5)">
    <path id="Path_3541" data-name="Path 3541" d="M38.951,56H6.79A6.8,6.8,0,0,0,0,62.79V84.945a6.8,6.8,0,0,0,6.79,6.79H38.951a6.8,6.8,0,0,0,6.79-6.79V62.79A6.8,6.8,0,0,0,38.951,56Zm0,32.876H6.79a3.935,3.935,0,0,1-3.931-3.931V62.79A3.935,3.935,0,0,1,6.79,58.859H38.951a3.935,3.935,0,0,1,3.931,3.931v6.075H35.02a5,5,0,0,0,0,10.006h7.862v6.075A3.935,3.935,0,0,1,38.951,88.876Zm3.931-12.864H35.02a2.144,2.144,0,1,1,0-4.288h7.862Z" transform="translate(0 0)" fill="#005d6b" stroke="#fff" stroke-width="1"/>
  </g>
</svg>
